<?xml version="1.0" standalone="no"?>
<!DOCTYPE svg PUBLIC "-//W3C//DTD SVG 20010904//EN"
 "http://www.w3.org/TR/2001/REC-SVG-20010904/DTD/svg10.dtd">
<svg version="1.0" xmlns="http://www.w3.org/2000/svg"
 width="400.000000pt" height="400.000000pt" viewBox="0 0 400.000000 400.000000"
 preserveAspectRatio="xMidYMid meet">
<metadata>
Created by potrace 1.11, written by Peter Selinger 2001-2013
</metadata>
<g transform="translate(0.000000,400.000000) scale(0.100000,-0.100000)"
fill="#000000" stroke="none">
<path d="M1725 3313 c-97 -50 -138 -152 -102 -250 47 -127 224 -162 319 -63
89 94 64 246 -52 308 -50 26 -121 29 -165 5z"/>
<path d="M2460 3313 c-69 -30 -111 -98 -111 -178 0 -143 133 -230 271 -177 14
5 38 22 53 38 79 79 81 192 5 271 -59 62 -142 79 -218 46z"/>
<path d="M1772 2853 c-60 -29 -77 -89 -53 -193 29 -132 33 -564 6 -765 -2 -16
-6 -55 -9 -85 -4 -30 -8 -66 -10 -80 -3 -14 -10 -59 -16 -100 -10 -71 -49
-236 -84 -362 -37 -129 -105 -261 -170 -330 -26 -27 -30 -29 -103 -48 -58 -15
-82 -50 -79 -117 2 -59 21 -86 72 -103 37 -12 140 -8 215 9 190 43 380 217
483 443 36 80 91 242 105 308 6 30 14 66 17 80 29 141 50 352 48 500 -5 355
-71 622 -191 768 -59 73 -165 107 -231 75z"/>
<path d="M2513 2823 c-64 -22 -149 -118 -178 -203 -1 -3 -4 -12 -7 -20 -54
-143 -50 -425 9 -630 28 -96 88 -208 138 -252 81 -73 204 -73 246 0 9 17 17
57 18 102 2 41 5 102 6 135 2 33 6 200 9 370 5 329 -1 405 -40 458 -40 55
-112 69 -201 40z"/>
</g>
</svg>
